<svg id="Layer_1" data-name="Layer 1" xmlns="http://www.w3.org/2000/svg" viewBox="0 0 3488.35 1258.06"><defs><style>.cls-1{fill:#602b00;}.cls-2{fill:#fc9c54;}.cls-3{fill:#fd5e53;}.cls-4{fill:#ffe373;}.cls-5{fill:#fff7d7;}.cls-6{fill:#fdd38d;}.cls-7{fill:#ffb888;}</style></defs><path class="cls-1" d="M1914.2,1038.39V947h191.42q91.38,0,131.7-35.26t40.29-111.55v-285H2369v285q0,121.63-63.33,179.92t-200.05,58.28Z" transform="translate(-195.39 -186.47)"/><path class="cls-1" d="M2611.51,1038.39q-38.16,0-69.44-11.15t-53.26-32a141.79,141.79,0,0,1-33.82-50q-11.88-29.15-11.87-65.12,0-46.05,23-76.29a117.68,117.68,0,0,1,59-41.73q-29.51-9.34-50.73-35.63t-21.23-75.91q0-33.1,11.87-58.65a111.32,111.32,0,0,1,34.19-42.45q22.29-16.9,53.25-25.55t69.08-8.64h215.89q38.13,0,69.44,8.64t53.25,25.55a116.06,116.06,0,0,1,34.18,42.45q12.22,25.56,12.24,58.65,0,25.18-5.76,43.89t-15.83,32a98.07,98.07,0,0,1-23.39,22.31,101.5,101.5,0,0,1-27.7,13.32,117.74,117.74,0,0,1,59,41.73q23,30.24,23,76.29,0,36-11.87,65.12a142.08,142.08,0,0,1-33.83,50q-22,20.88-53.25,32t-69.44,11.15ZM2615.1,811q-38.85,0-59.36,17.63t-20.51,50q0,34.56,27.7,51.46T2633.82,947h191.41q43.17,0,70.88-16.91t27.71-51.46q0-32.39-20.51-50T2843.94,811Zm23.75-205.08q-45.33,0-69.44,14t-24.11,50.73q0,34.55,18.71,48.93T2621.58,734h215.89q38.87,0,57.57-14.39t18.7-48.93q0-36.7-24.1-50.73t-69.44-14Z" transform="translate(-195.39 -186.47)"/><path class="cls-1" d="M3573.65,1038.39,3495.21,906.7H3247.66l43.18-74.12h160.47L3334.73,636.85l-237.47,401.54H2992.91l300.81-500.85q7.89-13.66,18.71-21.59t25.9-7.92q15.11,0,25.55,7.92t18.35,21.59l301.51,500.85Z" transform="translate(-195.39 -186.47)"/><rect class="cls-1" x="1484.15" y="114.29" width="31.19" height="1025.29"/><path class="cls-2" d="M1453.45,815.5A629.85,629.85,0,0,0,1433,655.92a622.57,622.57,0,0,0-44-117.81H259.84a623.26,623.26,0,0,0-44,117.81A628.93,628.93,0,0,0,204.72,923H1444.13A630,630,0,0,0,1453.45,815.5Z" transform="translate(-195.39 -186.47)"/><path class="cls-3" d="M1275.17,377c-114.28-117.44-273.94-190.49-450.75-190.49S488,259.52,373.68,377A631.26,631.26,0,0,0,259.84,538.11H1389A631,631,0,0,0,1275.17,377Z" transform="translate(-195.39 -186.47)"/><path class="cls-4" d="M204.72,923c.68,4,1.38,7.91,2.13,11.84a626.52,626.52,0,0,0,130.78,279c115.36,140.8,290.56,230.69,486.79,230.69s371.43-89.89,486.79-230.69a626.42,626.42,0,0,0,130.78-279c.76-3.93,1.45-7.89,2.14-11.84Z" transform="translate(-195.39 -186.47)"/><circle class="cls-5" cx="955.86" cy="293.14" r="61.62" transform="translate(-122.71 575.28) rotate(-45)"/><circle class="cls-6" cx="1138.97" cy="445.53" r="61.62" transform="translate(-176.83 749.4) rotate(-45)"/><path class="cls-7" d="M1360.39,486.55C1056.68,473.71,753,535.81,449.28,538.17c-62.63.49-123.52-.39-186.15-6.68l-3.29,6.62c-4,8.06-7.69,16.25-11.32,24.5C629.41,612.9,1012.08,514.54,1393,546.32c-.75-1.57-3.2-6.65-4-8.21C1380.28,520.42,1370.67,503.26,1360.39,486.55Z" transform="translate(-195.39 -186.47)"/><path class="cls-1" d="M1050.83,580.7a280,280,0,0,1-25.7-13c-31.56-17.49-67.48-29-105.07-33.92-13.5-1.76-27.71-3.55-39.75-4.91-1-27.81-28.69-50.12-62.78-50.12S755.71,501.13,754.74,529c-18.32,2-44.23,6.42-76.44,15.75-24.83,7.2-53.35,26.56-84.9,36.78,80.09-1.33,166.08-2,255.6-2C918.81,579.44,986.45,579.88,1050.83,580.7Z" transform="translate(-195.39 -186.47)"/><path class="cls-1" d="M1286,781.14l105.39-10.95a552.05,552.05,0,0,0-133.41-36l-3-40.83s-71-19.55-432.35-19.55-398.38,19.55-398.38,19.55l-2.94,36.88A572,572,0,0,0,286,757.66l-37.32,12.53L403.8,781.14Z" transform="translate(-195.39 -186.47)"/><path class="cls-1" d="M1239.24,656.71c-51-19.71-111.58-50.58-164.44-50.58H585.63c-39.71,0-126.95,40.52-164.53,53.55,121.86-9.72,269.64-15.42,429-15.42C992.43,644.26,1125.57,648.81,1239.24,656.71Z" transform="translate(-195.39 -186.47)"/><polygon class="cls-1" points="318.64 838.63 494.2 988.04 721.92 809.57 912.42 966.45 1058.1 854.39 1109.2 891.73 1077.95 624.71 185.2 624.71 143.94 1003.72 318.64 838.63"/></svg>